#N canvas 454 191 621 481 10;
#X obj 15 260 dac~ 1 2;
#X obj 45 141 samphold~;
#X obj 105 110 phasor~;
#X obj 77 198 hsl 128 15 0 1 0 0 empty empty empty -2 -8 0 10 -262144
-1 -1 0 1;
#N canvas 531 199 450 300 drywet 0;
#X obj 92 12 inlet;
#X obj 7 16 inlet~;
#X obj 7 182 *~;
#X obj 7 214 outlet~;
#X obj 75 182 *~;
#X obj 92 77 line~;
#X obj 92 52 pack f f;
#X obj 25 77 line~;
#X obj 25 52 pack f f;
#X obj 141 3 loadbang;
#X msg 141 25 0;
#X obj 76 143 inlet~;
#X msg 179 25 10;
#X obj 25 98 expr~ 0.5 * cos($v1 * atan(1) * 4) + 0.5;
#X obj 92 119 expr~ -0.5 * cos($v1 * atan(1) * 4) + 0.5;
#X connect 0 0 6 0;
#X connect 0 0 8 0;
#X connect 1 0 2 0;
#X connect 2 0 3 0;
#X connect 4 0 3 0;
#X connect 5 0 14 0;
#X connect 6 0 5 0;
#X connect 7 0 13 0;
#X connect 8 0 7 0;
#X connect 9 0 10 0;
#X connect 9 0 12 0;
#X connect 10 0 6 0;
#X connect 10 0 8 0;
#X connect 11 0 4 0;
#X connect 12 0 6 1;
#X connect 12 0 8 1;
#X connect 13 0 2 1;
#X connect 14 0 4 1;
#X restore 14 219 pd drywet;
#N canvas 406 197 450 300 loop 0;
#X obj 35 33 openpanel;
#X obj 5 90 t b b;
#X msg 5 110 1;
#X obj 68 130 readsf~;
#X obj 35 5 inlet;
#X obj 68 153 outlet~;
#X msg 67 85 set open \$1;
#X obj 35 57 t b a b;
#X msg 118 38 \; pd dsp 1;
#X msg 68 108;
#X connect 0 0 7 0;
#X connect 1 0 2 0;
#X connect 1 1 9 0;
#X connect 2 0 3 0;
#X connect 3 0 5 0;
#X connect 3 1 1 0;
#X connect 4 0 0 0;
#X connect 6 0 9 0;
#X connect 7 0 1 0;
#X connect 7 1 6 0;
#X connect 7 2 8 0;
#X connect 9 0 3 0;
#X restore 15 88 pd loop;
#X obj 15 62 bng 15 250 50 0 empty empty empty 17 7 0 10 -262144 -1
-1;
#X obj 105 56 mtof;
#X obj 105 7 notein;
#X floatatom 105 32 5 -42 136 0 - - -, f 5;
#X obj 212 154 bng 15 250 50 0 empty empty empty 17 7 0 10 -262144
-1 -1;
#X floatatom 105 80 8 0 22000 0 - - -, f 8;
#X text 171 78 Hz;
#X text 109 181 crossfade;
#X text 228 154 sample trigger;
#X text 13 19 click to;
#X text 6 38 load sample;
#X obj 212 201 vsl 15 128 -1 1 0 0 empty empty empty 0 -9 0 10 -262144
-1 -1 6350 1;
#X obj 212 178 snapshot~;
#X obj 193 7 loadbang;
#X msg 157 7 100;
#X text 144 32 midi note;
#X obj 166 110 threshold~ 0.5 0 0.5 0;
#X connect 1 0 4 1;
#X connect 1 0 18 0;
#X connect 2 0 1 1;
#X connect 2 0 22 0;
#X connect 3 0 4 2;
#X connect 4 0 0 0;
#X connect 4 0 0 1;
#X connect 5 0 4 0;
#X connect 5 0 1 0;
#X connect 6 0 5 0;
#X connect 7 0 11 0;
#X connect 8 0 9 0;
#X connect 9 0 7 0;
#X connect 10 0 18 0;
#X connect 11 0 2 0;
#X connect 18 0 17 0;
#X connect 19 0 20 0;
#X connect 20 0 9 0;
#X connect 22 1 10 0;
